<svg width="25" height="24" viewBox="0 0 25 24" fill="none" xmlns="http://www.w3.org/2000/svg">
<path d="M20.46 8.96002C19.79 8.22002 18.78 7.79002 17.38 7.64002V6.88002C17.38 5.51002 16.8 4.19002 15.78 3.27002C14.75 2.33002 13.41 1.89002 12.02 2.02002C9.62999 2.25002 7.61999 4.56002 7.61999 7.06002V7.64002C6.21999 7.79002 5.20999 8.22002 4.53999 8.96002C3.56999 10.04 3.59999 11.48 3.70999 12.48L4.40999 18.05C4.61999 20 5.40999 22 9.70999 22H15.29C19.59 22 20.38 20 20.59 18.06L21.29 12.47C21.4 11.48 21.42 10.04 20.46 8.96002ZM12.16 3.41002C13.16 3.32002 14.11 3.63002 14.85 4.30002C15.58 4.96002 15.99 5.90002 15.99 6.88002V7.58002H9.00999V7.06002C9.00999 5.28002 10.48 3.57002 12.16 3.41002ZM8.91999 13.15H8.90999C8.35999 13.15 7.90999 12.7 7.90999 12.15C7.90999 11.6 8.35999 11.15 8.90999 11.15C9.46999 11.15 9.91999 11.6 9.91999 12.15C9.91999 12.7 9.46999 13.15 8.91999 13.15ZM15.92 13.15H15.91C15.36 13.15 14.91 12.7 14.91 12.15C14.91 11.6 15.36 11.15 15.91 11.15C16.47 11.15 16.92 11.6 16.92 12.15C16.92 12.7 16.47 13.15 15.92 13.15Z" fill="#545878"/>
</svg>
