<svg width="24" height="24" viewBox="0 0 24 24" fill="none" xmlns="http://www.w3.org/2000/svg">
<path d="M20.2102 7.82L12.5102 12.28C12.2002 12.46 11.8102 12.46 11.4902 12.28L3.79021 7.82C3.24021 7.5 3.10021 6.75 3.52021 6.28C3.81021 5.95 4.14021 5.68 4.49021 5.49L9.91021 2.49C11.0702 1.84 12.9502 1.84 14.1102 2.49L19.5302 5.49C19.8802 5.68 20.2102 5.96 20.5002 6.28C20.9002 6.75 20.7602 7.5 20.2102 7.82Z" fill="#E0976D"/>
<path d="M11.43 14.14V20.96C11.43 21.72 10.66 22.22 9.97998 21.89C7.91998 20.88 4.44998 18.99 4.44998 18.99C3.22998 18.3 2.22998 16.56 2.22998 15.13V9.97C2.22998 9.18 3.05998 8.68 3.73998 9.07L10.93 13.24C11.23 13.43 11.43 13.77 11.43 14.14Z" fill="#E0976D"/>
<path d="M12.5698 14.14V20.96C12.5698 21.72 13.3398 22.22 14.0198 21.89C16.0798 20.88 19.5498 18.99 19.5498 18.99C20.7698 18.3 21.7698 16.56 21.7698 15.13V9.97C21.7698 9.18 20.9398 8.68 20.2598 9.07L13.0698 13.24C12.7698 13.43 12.5698 13.77 12.5698 14.14Z" fill="#E0976D"/>
</svg>
