<svg width="61" height="61" viewBox="0 0 61 61" fill="none" xmlns="http://www.w3.org/2000/svg">
<path d="M45.7503 15.25C44.1998 15.25 42.7765 14.3604 42.0648 12.9879L40.2348 9.30251C39.0657 6.98959 36.0157 5.08334 33.4232 5.08334H27.6028C24.9848 5.08334 21.9348 6.98959 20.7657 9.30251L18.9357 12.9879C18.224 14.3604 16.8007 15.25 15.2503 15.25C9.73485 15.25 5.36318 19.9013 5.71901 25.3913L7.04068 46.3854C7.34568 51.6213 10.1669 55.9167 17.1819 55.9167H43.8186C50.8336 55.9167 53.6294 51.6213 53.9598 46.3854L55.2815 25.3913C55.6373 19.9013 51.2657 15.25 45.7503 15.25ZM26.6878 18.4271H34.3128C35.3548 18.4271 36.219 19.2913 36.219 20.3333C36.219 21.3754 35.3548 22.2396 34.3128 22.2396H26.6878C25.6457 22.2396 24.7815 21.3754 24.7815 20.3333C24.7815 19.2913 25.6457 18.4271 26.6878 18.4271ZM30.5003 46.055C25.7728 46.055 21.9094 42.2171 21.9094 37.4642C21.9094 32.7113 25.7473 28.8733 30.5003 28.8733C35.2532 28.8733 39.0911 32.7113 39.0911 37.4642C39.0911 42.2171 35.2278 46.055 30.5003 46.055Z" fill="#545878"/>
</svg>
