<svg width="16" height="17" viewBox="0 0 16 17" fill="none" xmlns="http://www.w3.org/2000/svg">
<path d="M14 15.1666H2C1.72667 15.1666 1.5 14.94 1.5 14.6666C1.5 14.3933 1.72667 14.1666 2 14.1666H14C14.2733 14.1666 14.5 14.3933 14.5 14.6666C14.5 14.94 14.2733 15.1666 14 15.1666Z" fill="white"/>
<path d="M12.68 2.81994C11.3867 1.52661 10.12 1.49328 8.79333 2.81994L7.98666 3.62661C7.91999 3.69328 7.89333 3.79994 7.91999 3.89328C8.42666 5.65994 9.83999 7.07328 11.6067 7.57994C11.6333 7.58661 11.66 7.59328 11.6867 7.59328C11.76 7.59328 11.8267 7.56661 11.88 7.51328L12.68 6.70661C13.34 6.05328 13.66 5.41994 13.66 4.77994C13.6667 4.11994 13.3467 3.47994 12.68 2.81994Z" fill="white"/>
<path d="M10.4067 8.18666C10.2133 8.09332 10.0267 7.99999 9.84666 7.89333C9.69999 7.80666 9.55999 7.71333 9.41999 7.61333C9.30666 7.53999 9.17333 7.43333 9.04666 7.32666C9.03333 7.31999 8.98666 7.27999 8.93333 7.22666C8.71333 7.03999 8.46666 6.79999 8.24666 6.53333C8.22666 6.51999 8.19333 6.47333 8.14666 6.41333C8.07999 6.33333 7.96666 6.19999 7.86666 6.04666C7.78666 5.94666 7.69333 5.79999 7.60666 5.65333C7.49999 5.47333 7.40666 5.29333 7.31333 5.10666C7.19095 4.84443 6.84679 4.76653 6.64217 4.97115L2.89333 8.71999C2.80666 8.80666 2.72666 8.97333 2.70666 9.08666L2.34666 11.64C2.27999 12.0933 2.40666 12.52 2.68666 12.8067C2.92666 13.04 3.25999 13.1667 3.61999 13.1667C3.69999 13.1667 3.77999 13.16 3.85999 13.1467L6.41999 12.7867C6.53999 12.7667 6.70666 12.6867 6.78666 12.6L10.5417 8.84497C10.7422 8.64444 10.6669 8.29942 10.4067 8.18666Z" fill="white"/>
</svg>
