<svg width="24" height="24" viewBox="0 0 24 24" fill="none" xmlns="http://www.w3.org/2000/svg">
<path d="M21.5599 10.74L20.1999 9.16C19.9399 8.86 19.7299 8.3 19.7299 7.9V6.2C19.7299 5.14 18.8599 4.27 17.7999 4.27H16.0999C15.7099 4.27 15.1399 4.06 14.8399 3.8L13.2599 2.44C12.5699 1.85 11.4399 1.85 10.7399 2.44L9.16988 3.81C8.86988 4.06 8.29988 4.27 7.90988 4.27H6.17988C5.11988 4.27 4.24988 5.14 4.24988 6.2V7.91C4.24988 8.3 4.03988 8.86 3.78988 9.16L2.43988 10.75C1.85988 11.44 1.85988 12.56 2.43988 13.25L3.78988 14.84C4.03988 15.14 4.24988 15.7 4.24988 16.09V17.8C4.24988 18.86 5.11988 19.73 6.17988 19.73H7.90988C8.29988 19.73 8.86988 19.94 9.16988 20.2L10.7499 21.56C11.4399 22.15 12.5699 22.15 13.2699 21.56L14.8499 20.2C15.1499 19.94 15.7099 19.73 16.1099 19.73H17.8099C18.8699 19.73 19.7399 18.86 19.7399 17.8V16.1C19.7399 15.71 19.9499 15.14 20.2099 14.84L21.5699 13.26C22.1499 12.57 22.1499 11.43 21.5599 10.74ZM16.6799 12L15.5099 15.56C15.3599 16.15 14.7299 16.63 14.0899 16.63H12.2399C11.9199 16.63 11.4699 16.52 11.2699 16.32L9.79988 15.17C9.76988 15.81 9.47988 16.08 8.76988 16.08H8.28988C7.54988 16.08 7.24988 15.79 7.24988 15.09V10.31C7.24988 9.61 7.54988 9.32 8.28988 9.32H8.77988C9.51988 9.32 9.81988 9.61 9.81988 10.31V10.67L11.7599 7.79C11.9599 7.48 12.4699 7.26 12.8999 7.43C13.3699 7.59 13.6699 8.11 13.5699 8.57L13.3299 10.13C13.3099 10.27 13.3399 10.4 13.4299 10.5C13.5099 10.59 13.6299 10.65 13.7599 10.65H15.7099C16.0899 10.65 16.4099 10.8 16.5999 11.07C16.7699 11.33 16.7999 11.66 16.6799 12Z" fill="#272A46"/>
</svg>
