<svg width="30" height="30" viewBox="0 0 30 30" fill="none" xmlns="http://www.w3.org/2000/svg">
<rect width="30" height="30" rx="10" fill="#545878"/>
<path d="M20.3331 19.84H14.2864C13.9864 19.84 13.7397 19.5933 13.7397 19.2933C13.7397 18.9933 13.9864 18.7466 14.2864 18.7466H20.3331C20.6331 18.7466 20.8797 18.9933 20.8797 19.2933C20.8797 19.6 20.6331 19.84 20.3331 19.84Z" fill="white"/>
<path d="M20.3331 15.6467H14.2864C13.9864 15.6467 13.7397 15.4 13.7397 15.1C13.7397 14.8 13.9864 14.5533 14.2864 14.5533H20.3331C20.6331 14.5533 20.8797 14.8 20.8797 15.1C20.8797 15.4 20.6331 15.6467 20.3331 15.6467Z" fill="white"/>
<path d="M20.3331 11.4467H14.2864C13.9864 11.4467 13.7397 11.2 13.7397 10.9C13.7397 10.6 13.9864 10.3533 14.2864 10.3533H20.3331C20.6331 10.3533 20.8797 10.6 20.8797 10.9C20.8797 11.2 20.6331 11.4467 20.3331 11.4467Z" fill="white"/>
<path d="M10.2735 12.3533C10.1268 12.3533 9.98678 12.2933 9.88678 12.1933L9.28012 11.5867C9.06678 11.3733 9.06678 11.0267 9.28012 10.8133C9.49345 10.6 9.84012 10.6 10.0535 10.8133L10.2735 11.0333L11.7001 9.60666C11.9135 9.39332 12.2601 9.39332 12.4735 9.60666C12.6868 9.81999 12.6868 10.1667 12.4735 10.38L10.6601 12.1933C10.5535 12.2933 10.4201 12.3533 10.2735 12.3533Z" fill="white"/>
<path d="M10.2735 16.5533C10.1335 16.5533 9.99345 16.5 9.88678 16.3933L9.28012 15.7867C9.06678 15.5733 9.06678 15.2267 9.28012 15.0133C9.49345 14.8 9.84012 14.8 10.0535 15.0133L10.2735 15.2333L11.7001 13.8067C11.9135 13.5933 12.2601 13.5933 12.4735 13.8067C12.6868 14.02 12.6868 14.3667 12.4735 14.58L10.6601 16.3933C10.5535 16.5 10.4135 16.5533 10.2735 16.5533Z" fill="white"/>
<path d="M10.2735 20.5533C10.1335 20.5533 9.99345 20.5 9.88678 20.3933L9.28012 19.7867C9.06678 19.5733 9.06678 19.2267 9.28012 19.0133C9.49345 18.8 9.84012 18.8 10.0535 19.0133L10.2735 19.2333L11.7001 17.8067C11.9135 17.5933 12.2601 17.5933 12.4735 17.8067C12.6868 18.02 12.6868 18.3667 12.4735 18.58L10.6601 20.3933C10.5535 20.5 10.4135 20.5533 10.2735 20.5533Z" fill="white"/>
</svg>
