<svg width="25" height="24" viewBox="0 0 25 24" fill="none" xmlns="http://www.w3.org/2000/svg">
<path d="M7.17 14H4.5C3.4 14 2.5 14.9 2.5 16V21C2.5 21.55 2.95 22 3.5 22H7.17C7.72 22 8.17 21.55 8.17 21V15C8.17 14.45 7.72 14 7.17 14Z" fill="#545878"/>
<path d="M13.83 10H11.16C10.06 10 9.15997 10.9 9.15997 12V21C9.15997 21.55 9.60997 22 10.16 22H14.83C15.38 22 15.83 21.55 15.83 21V12C15.83 10.9 14.94 10 13.83 10Z" fill="#545878"/>
<path d="M20.5 17H17.83C17.28 17 16.83 17.45 16.83 18V21C16.83 21.55 17.28 22 17.83 22H21.5C22.05 22 22.5 21.55 22.5 21V19C22.5 17.9 21.6 17 20.5 17Z" fill="#545878"/>
<path d="M15.51 4.84998C15.82 4.53998 15.94 4.16998 15.84 3.84998C15.74 3.52998 15.43 3.29998 14.99 3.22998L14.03 3.06998C13.99 3.06998 13.9 2.99998 13.88 2.95998L13.35 1.89998C12.95 1.08998 12.04 1.08998 11.64 1.89998L11.11 2.95998C11.1 2.99998 11.01 3.06998 10.97 3.06998L10.01 3.22998C9.57 3.29998 9.27 3.52998 9.16 3.84998C9.06 4.16998 9.18 4.53998 9.49 4.84998L10.23 5.59998C10.27 5.62998 10.3 5.74998 10.29 5.78998L10.08 6.70998C9.92 7.39998 10.18 7.70998 10.35 7.82998C10.52 7.94998 10.89 8.10998 11.5 7.74998L12.4 7.21998C12.44 7.18998 12.57 7.18998 12.61 7.21998L13.5 7.74998C13.78 7.91998 14.01 7.96998 14.19 7.96998C14.4 7.96998 14.55 7.88998 14.64 7.82998C14.81 7.70998 15.07 7.39998 14.91 6.70998L14.7 5.78998C14.69 5.73998 14.72 5.62998 14.76 5.59998L15.51 4.84998Z" fill="#545878"/>
</svg>
