<svg width="16" height="17" viewBox="0 0 16 17" fill="none" xmlns="http://www.w3.org/2000/svg">
<path d="M14.0467 3.98671C12.9733 3.88004 11.9 3.80004 10.82 3.74004V3.73337L10.6733 2.86671C10.5733 2.25337 10.4267 1.33337 8.86667 1.33337H7.12C5.56667 1.33337 5.42 2.21337 5.31334 2.86004L5.17334 3.71337C4.55334 3.75337 3.93334 3.79337 3.31334 3.85337L1.95334 3.98671C1.67334 4.01337 1.47334 4.26004 1.5 4.53337C1.52667 4.80671 1.76667 5.00671 2.04667 4.98004L3.40667 4.84671C6.9 4.50004 10.42 4.63337 13.9533 4.98671C13.9733 4.98671 13.9867 4.98671 14.0067 4.98671C14.26 4.98671 14.48 4.79337 14.5067 4.53337C14.5267 4.26004 14.3267 4.01337 14.0467 3.98671Z" fill="white"/>
<path d="M12.82 5.92663C12.66 5.75996 12.44 5.66663 12.2133 5.66663H3.78667C3.56001 5.66663 3.33334 5.75996 3.18001 5.92663C3.02667 6.09329 2.94001 6.31996 2.95334 6.55329L3.36667 13.3933C3.44001 14.4066 3.53334 15.6733 5.86001 15.6733H10.14C12.4667 15.6733 12.56 14.4133 12.6333 13.3933L13.0467 6.55996C13.06 6.31996 12.9733 6.09329 12.82 5.92663ZM9.10667 12.3333H6.88667C6.61334 12.3333 6.38667 12.1066 6.38667 11.8333C6.38667 11.56 6.61334 11.3333 6.88667 11.3333H9.10667C9.38001 11.3333 9.60667 11.56 9.60667 11.8333C9.60667 12.1066 9.38001 12.3333 9.10667 12.3333ZM9.66667 9.66663H6.33334C6.06001 9.66663 5.83334 9.43996 5.83334 9.16663C5.83334 8.89329 6.06001 8.66663 6.33334 8.66663H9.66667C9.94001 8.66663 10.1667 8.89329 10.1667 9.16663C10.1667 9.43996 9.94001 9.66663 9.66667 9.66663Z" fill="white"/>
</svg>
